<svg id="Layer_1" data-name="Layer 1" xmlns="http://www.w3.org/2000/svg" viewBox="0 0 1080 1080"><defs><style>.cls-1{fill:#f7eef0;}.cls-2{fill:#fb8500;}.cls-3{fill:none;stroke:#f7eef0;stroke-linecap:round;stroke-miterlimit:10;stroke-width:4px;}.cls-4{fill:#fff;}</style></defs><title>becon 2021 logo top bar</title><polygon class="cls-1" points="166 678.37 166 497.98 221.45 462.18 221.45 653.8 180.28 678.78 166 678.78 166 678.37"/><polygon class="cls-1" points="223.01 398.01 327.47 463.17 379.48 428.53 273.06 365.93 223.01 398.01"/><polygon class="cls-1" points="280.07 492.96 379.51 557.15 325.64 591.05 280.31 560.97 280.07 492.96"/><polygon class="cls-2" points="166 497.98 166 433.97 223.01 398.01 272.6 429.04 166 497.98"/><polygon class="cls-2" points="379.48 428.53 280.07 492.96 329.47 524.68 379.5 494.64 379.48 428.53"/><polygon class="cls-2" points="379.51 557.15 180.35 678.78 234.26 709.82 379.44 621.32 379.51 557.15"/><path class="cls-1" d="M414.06,624.2v-199h88.15v24.13h-52.6v60.4h46.68v24.1H449.61v66.26h52.6V624.2Z"/><path class="cls-1" d="M634.06,577.63v12.76q0,33.81-42.59,33.81h-23q-42.6,0-42.59-33.81V459q0-33.84,42.59-33.83h23q42.6,0,42.59,33.83v22.44H598.51v-20.5q0-11.64-15.93-11.64h-7q-14.07,0-14.07,11.64V588.45q0,11.64,14.07,11.64h8.9q14.09,0,14.07-11.64V577.63Z"/><path class="cls-1" d="M703,624.2q-43,0-43-36.93V543q0-37.23,42.59-37.24h34.07q42.58,0,42.6,37.24v44.23q0,36.93-43,36.93Zm8.52-26.34h18.14q14.08,0,14.08-12.71V544.86q0-12.71-15.93-12.71h-16.7q-15.58,0-15.57,12.71v40.29q0,12.71,15.93,12.71Z"/><path class="cls-1" d="M884.45,574.45V508H920V624.2H884.45l-38.16-60.47v60.43H810.74V508h35.55Z"/><polyline class="cls-3" points="257 726.73 380 655.73 920 655.73"/><polyline class="cls-3" points="296 352.73 382 402.73 922 402.73"/><path class="cls-2" d="M403.72,684.8c0,4.14-2.86,6-5.84,6.5a17.46,17.46,0,0,1-2.89.17H387.7V668.82h6.66a21.52,21.52,0,0,1,3,.13c3.58.49,5.58,2.3,5.58,5.51,0,2.73-1.51,4.17-3.84,5C402,680.11,403.72,681.73,403.72,684.8Zm-13.2-6.23h4.37a13.62,13.62,0,0,0,1.8-.13,3.38,3.38,0,0,0,3.21-3.53c0-.07,0-.15,0-.22,0-2.23-1.45-3.28-3.48-3.51-.59-.06-1.28-.06-1.81-.06h-4.07Zm10.18,6.53c0-2.79-1.51-3.81-3.68-4.1a12.13,12.13,0,0,0-1.8-.14h-4.7v8.31h4.89a11.2,11.2,0,0,0,1.58-.07,3.75,3.75,0,0,0,3.72-3.78c0-.08,0-.15,0-.22Z"/><path class="cls-4" d="M424.73,691.47H421.9v-3l-1.08,2a6.89,6.89,0,0,1-4.53,1.38c-3.61,0-5.71-2-6.1-4.44a17.76,17.76,0,0,1-.17-3V674.07h2.82V684c0,.8.05,1.6.14,2.4a3.71,3.71,0,0,0,4,3.31c2.73,0,4.89-2,4.89-8V674h2.83Z"/><path class="cls-4" d="M444,679h-3a3.55,3.55,0,0,0-3.67-3.25c-2,0-2.89,1.08-2.89,2.59,0,1.74,1.44,2.43,3.81,3,4,1,5.9,2.63,5.9,5.58,0,3.28-2.79,4.93-6.46,4.93s-6.3-1.65-6.83-5.58h2.95a3.77,3.77,0,0,0,4.1,3.39H438c1.87,0,3.38-.85,3.38-2.53s-1.18-2.56-4.1-3.35c-3.12-.85-5.61-2.13-5.61-5.18s2.43-5.09,6-5.09C441.53,673.61,443.66,675.84,444,679Z"/><path class="cls-4" d="M453.71,670.16a1.81,1.81,0,1,1-1.82-1.8h0a1.78,1.78,0,0,1,1.81,1.75Zm-3.22,21.31v-17.4h2.83v17.4Z"/><path class="cls-4" d="M475.86,681.73v9.79H473v-9.59c0-.88,0-1.61-.06-2.49-.17-2-1.28-3.55-4-3.55s-5,2-5,8v7.65h-2.82v-17.4H464v3l1.09-2a6.57,6.57,0,0,1,4.53-1.44c3.8,0,5.94,2,6.2,5.09C475.86,679.58,475.86,680.27,475.86,681.73Z"/><path class="cls-4" d="M497.69,683.62h-12.6c.26,4.6,2.43,6.14,5,6.14a4.38,4.38,0,0,0,4.49-3.91h3c-.69,4.2-4,6.08-7.58,6.08-4.53,0-7.91-3-7.91-9.1,0-5.64,3.51-9.22,8.27-9.22s7.45,3.58,7.45,8.67A10.11,10.11,0,0,1,497.69,683.62Zm-12.57-2.17h9.78c-.26-3.61-1.8-5.67-4.66-5.67s-4.79,2-5.12,5.67Z"/><path class="cls-4" d="M515.81,679h-2.95a3.56,3.56,0,0,0-3.68-3.25c-2,0-2.89,1.08-2.89,2.59,0,1.74,1.45,2.43,3.81,3,4,1,5.91,2.63,5.91,5.58,0,3.28-2.79,4.93-6.47,4.93s-6.3-1.65-6.83-5.58h3a3.77,3.77,0,0,0,4.07,3.41c1.87,0,3.38-.85,3.38-2.53s-1.18-2.56-4.1-3.35c-3.12-.85-5.62-2.13-5.62-5.18s2.43-5.09,6-5.09C513.32,673.61,515.45,675.84,515.81,679Z"/><path class="cls-4" d="M533.73,679h-3a3.56,3.56,0,0,0-3.68-3.25c-2,0-2.89,1.08-2.89,2.59,0,1.74,1.45,2.43,3.81,3,4,1,5.91,2.63,5.91,5.58,0,3.28-2.79,4.93-6.47,4.93s-6.3-1.65-6.82-5.58h3a3.77,3.77,0,0,0,4.07,3.41c1.87,0,3.38-.85,3.38-2.53s-1.18-2.56-4.1-3.35c-3.12-.85-5.61-2.13-5.61-5.18s2.42-5.09,6-5.09C531.24,673.61,533.37,675.84,533.73,679Z"/><path class="cls-4" d="M559.83,689l-1,1.87a7.55,7.55,0,0,1-4.37,1.09c-3.15,0-5.61-1.74-5.61-5,0-3.94,3-6,9.78-6h1.11v-.46c0-.76,0-1.45-.06-2.1-.13-1.61-1-2.66-3.38-2.66s-3.55,1.28-3.74,3.67h-3c.27-3.71,2.86-5.84,6.7-5.84,4.13,0,5.87,1.74,6.17,4.6.06.69.1,1.54.1,2.29V687a30.06,30.06,0,0,0,.33,4.44H560Zm0-4.1V683.1c-4.83-.37-7.83.63-7.83,3.63,0,2.1,1.35,3,3.48,3,2.61,0,4.31-1.71,4.31-4.86Z"/><path class="cls-4" d="M585.13,681.73v9.79h-2.82v-9.59c0-.88,0-1.61-.06-2.49-.17-2-1.28-3.55-4-3.55s-5,2-5,8v7.65h-2.82v-17.4h2.82v3l1.09-2a6.56,6.56,0,0,1,4.52-1.44c3.81,0,5.95,2,6.21,5.09C585.13,679.58,585.13,680.27,585.13,681.73Z"/><path class="cls-4" d="M608,691.47h-2.83v-2.74l-1.31,1.87a7.73,7.73,0,0,1-4.59,1.38c-5.09,0-7.91-3.81-7.91-8.9,0-6.43,4-9.42,8.5-9.42a7.55,7.55,0,0,1,4.14,1.07l1.15,1.71v-9.13H608Zm-2.83-8.54v-1c0-4.5-2.82-6.2-5.31-6.2-3.06,0-5.42,2.36-5.42,6.92,0,3.94,1.77,7.06,5.25,7.06,2.84,0,5.43-1.79,5.43-6.78Z"/><path class="cls-2" d="M641.66,691.47H626.59V668.82h14.74v2.3H629.41V679h10.93v2.3H629.41v7.88h12.25Z"/><path class="cls-4" d="M662.56,681.73v9.79h-2.82v-9.59c0-.88,0-1.61-.06-2.49-.17-2-1.28-3.55-4-3.55s-5,2-5,8v7.65h-2.82v-17.4h2.82v3l1.09-2a6.57,6.57,0,0,1,4.53-1.44c3.8,0,5.94,2,6.2,5.09C662.56,679.58,662.56,680.27,662.56,681.73Z"/><path class="cls-4" d="M673.56,686.38v1.34c.14,1.68.82,2,3,1.78v2.06a14.7,14.7,0,0,1-2.39.17c-2.17,0-3.28-.89-3.45-3V676.37h-2.33V674.2h2.33v-4h2.82v4h3.25v2.17h-3.25Z"/><path class="cls-4" d="M691.32,673.91V676c-3-.2-5.19,1.54-5.19,5.51v9.92h-2.82v-17.4h2.82v2.72l1.58-2.33a4.49,4.49,0,0,1,2.43-.78A2.52,2.52,0,0,1,691.32,673.91Z"/><path class="cls-4" d="M710.81,683.62h-12.6c.26,4.6,2.43,6.14,5,6.14a4.39,4.39,0,0,0,4.5-3.91h2.95c-.69,4.2-4,6.08-7.58,6.08-4.53,0-7.91-3-7.91-9.1,0-5.64,3.51-9.22,8.27-9.22s7.45,3.58,7.45,8.67A12,12,0,0,1,710.81,683.62Zm-12.57-2.17H708c-.26-3.61-1.8-5.67-4.66-5.67s-4.77,2-5.1,5.67Z"/><path class="cls-4" d="M734.12,682.51c0,6.43-4,9.42-8.5,9.42a7.59,7.59,0,0,1-4.17-1.15l-1.15-1.71v8.83h-2.82V674.07h2.82v2.79l1.31-1.87a7.71,7.71,0,0,1,4.6-1.38C731.3,673.61,734.12,677.42,734.12,682.51Zm-3.09.32c0-3.93-1.77-7.05-5.25-7.05-2.89,0-5.48,1.84-5.48,6.82v1c0,4.49,2.82,6.2,5.32,6.2,3-.07,5.38-2.4,5.38-7Z"/><path class="cls-4" d="M748.4,673.91V676c-3-.2-5.19,1.54-5.19,5.51v9.92h-2.82v-17.4h2.82v2.72l1.58-2.33a4.49,4.49,0,0,1,2.43-.78A2.52,2.52,0,0,1,748.4,673.91Z"/><path class="cls-4" d="M767.89,683.62h-12.6c.26,4.6,2.43,6.14,5,6.14a4.39,4.39,0,0,0,4.5-3.91h3c-.69,4.2-4,6.08-7.58,6.08-4.53,0-7.91-3-7.91-9.1,0-5.64,3.51-9.22,8.27-9.22s7.45,3.58,7.45,8.67A12.15,12.15,0,0,1,767.89,683.62Zm-12.57-2.17h9.78c-.26-3.61-1.8-5.67-4.66-5.67s-4.79,2-5.12,5.67Z"/><path class="cls-4" d="M789.26,681.73v9.79h-2.82v-9.59c0-.88,0-1.61-.07-2.49-.16-2-1.28-3.55-4-3.55s-5,2-5,8v7.65h-2.82v-17.4h2.82v3l1.08-2A6.57,6.57,0,0,1,783,673.7c3.81,0,5.94,2,6.21,5.09C789.26,679.58,789.26,680.27,789.26,681.73Z"/><path class="cls-4" d="M811.09,683.62h-12.6c.26,4.6,2.42,6.14,5,6.14a4.38,4.38,0,0,0,4.49-3.91h3c-.69,4.2-4,6.08-7.59,6.08-4.53,0-7.91-3-7.91-9.1,0-5.64,3.51-9.22,8.27-9.22s7.45,3.58,7.45,8.67A12.1,12.1,0,0,1,811.09,683.62Zm-12.57-2.17h9.78c-.26-3.61-1.81-5.67-4.66-5.67s-4.79,2-5.12,5.67Z"/><path class="cls-4" d="M832.19,691.47h-2.82v-3l-1.08,2a6.89,6.89,0,0,1-4.53,1.38c-3.61,0-5.71-2-6.11-4.44a18.86,18.86,0,0,1-.16-3V674.07h2.82V684a17,17,0,0,0,.13,2.4,3.73,3.73,0,0,0,4,3.31c2.73,0,4.89-2,4.89-8V674h2.82Z"/><path class="cls-4" d="M848.05,673.91V676c-2.95-.2-5.19,1.54-5.19,5.51v9.92H840v-17.4h2.82v2.72l1.58-2.33a4.49,4.49,0,0,1,2.43-.78A2.44,2.44,0,0,1,848.05,673.91Z"/><path class="cls-4" d="M865.18,679h-2.95a3.56,3.56,0,0,0-3.68-3.25c-2,0-2.89,1.08-2.89,2.59,0,1.74,1.45,2.43,3.81,3,4,1,5.91,2.63,5.91,5.58,0,3.28-2.79,4.93-6.47,4.93s-6.3-1.65-6.82-5.58H855a3.77,3.77,0,0,0,4.07,3.41c1.87,0,3.38-.85,3.38-2.53s-1.18-2.56-4.1-3.35c-3.12-.85-5.61-2.13-5.61-5.18s2.43-5.09,6-5.09C862.69,673.61,864.82,675.84,865.18,679Z"/><path class="cls-4" d="M886.35,681.73v9.79h-2.82v-9.59c0-.88,0-1.61-.06-2.49a3.51,3.51,0,0,0-3.46-3.58,2.45,2.45,0,0,0-.54,0c-2.72.07-5,2-5,8v7.65h-2.82V667.18h2.82v9.88l1.09-2a6.57,6.57,0,0,1,4.53-1.44c3.8,0,5.94,2,6.2,5.09C886.35,679.58,886.35,680.27,886.35,681.73Z"/><path class="cls-4" d="M897.19,670.16a1.81,1.81,0,1,1-1.82-1.8h0a1.78,1.78,0,0,1,1.81,1.75ZM894,691.47v-17.4h2.82v17.4Z"/><path class="cls-4" d="M921.28,682.51c0,6.43-4,9.42-8.5,9.42a7.59,7.59,0,0,1-4.17-1.15l-1.15-1.71v8.83h-2.82V674.07h2.82v2.79l1.31-1.87a7.71,7.71,0,0,1,4.6-1.38C918.45,673.61,921.28,677.42,921.28,682.51Zm-3.09.32c0-3.93-1.77-7.05-5.25-7.05-2.89,0-5.48,1.84-5.48,6.82v1c0,4.49,2.82,6.2,5.32,6.2,3.05-.07,5.41-2.4,5.41-7Z"/><path class="cls-2" d="M405.88,715.43v.33h-2.83l-.06-.33c-.66-3.25-2.66-5.45-6.43-5.45-4.63,0-7.49,4-7.49,9.52s2.83,9.58,7.29,9.58c3.77,0,5.78-2.2,6.43-5.45l.07-.32h2.82v.32c-.43,4.11-3.48,7.68-9.45,7.68-6.6,0-10.28-5-10.28-11.68,0-6.89,4.27-11.88,10.7-11.88C402.41,707.73,405.43,711,405.88,715.43Z"/><path class="cls-2" d="M428.47,722.16c0,4.89-2.73,9.15-8.63,9.15s-8.64-4.26-8.64-9.15,2.73-9.16,8.64-9.16S428.47,717.23,428.47,722.16Zm-3.09,0c0-4.11-2-7-5.54-7s-5.55,2.88-5.55,7,2,7,5.55,7S425.38,726.23,425.38,722.16Z"/><path class="cls-2" d="M449.44,721.07v9.78h-2.82v-9.58c0-.89,0-1.61-.07-2.49-.16-2-1.28-3.55-4-3.55s-5,2-5,8v7.64h-2.82V713.46h2.82v3l1.08-2a6.57,6.57,0,0,1,4.53-1.44c3.81,0,5.94,2,6.21,5.09C449.44,719,449.44,719.66,449.44,721.07Z"/><path class="cls-4" d="M471.14,719.3h-3c-.62-2.79-2.13-4.13-4.46-4.13-2.72,0-5,2.13-5,6.82,0,5.06,2.23,7.16,4.82,7.16,2.3,0,3.91-1.32,4.5-3.84h3c-.85,4-3.74,6-7.61,6-4.4,0-7.75-2.75-7.75-9.12,0-5.88,3.81-9.19,8.18-9.19A6.92,6.92,0,0,1,471.14,719.3Z"/><path class="cls-4" d="M480,725.87v1.64c.07,1.11.59,1.47,2.13,1.31v2a13.36,13.36,0,0,1-2,.14c-1.64,0-2.85-.53-2.95-2.73v-21.5H480Z"/><path class="cls-4" d="M498.51,728.36l-.95,1.87a7.54,7.54,0,0,1-4.37,1.08c-3.15,0-5.61-1.74-5.61-5,0-3.94,3-6,9.78-6h1.12v-.46c0-.7,0-1.4-.07-2.1-.13-1.6-1.05-2.65-3.38-2.65s-3.54,1.28-3.74,3.67h-3c.26-3.71,2.85-5.84,6.69-5.84,4.14,0,5.88,1.74,6.17,4.59.07.69.1,1.55.1,2.3v6.53a29.92,29.92,0,0,0,.33,4.43h-2.82Zm0-4.1v-1.77c-4.79-.37-7.81.65-7.81,3.64,0,2.1,1.34,3,3.48,3,2.59,0,4.3-1.72,4.3-4.87Z"/><path class="cls-4" d="M516.76,730.85h-3.44l-6.6-17.39h3.12l5.31,15.33,5.22-15.33h3Z"/><path class="cls-4" d="M542.79,723h-12.6c.26,4.6,2.43,6.14,5,6.14a4.38,4.38,0,0,0,4.49-3.91h3c-.69,4.2-4,6.07-7.59,6.07-4.52,0-7.9-3-7.9-9.09,0-5.64,3.51-9.22,8.27-9.22s7.45,3.58,7.45,8.66A10.26,10.26,0,0,1,542.79,723Zm-12.57-2.17H540c-.26-3.61-1.8-5.67-4.66-5.67s-4.79,2-5.12,5.67Z"/><path class="cls-2" d="M387.7,348.47V325.82h2.82v22.65Z"/><path class="cls-2" d="M398,348.47V325.82h2.82v22.65Z"/><path class="cls-2" d="M417,328.12v20.35h-2.82V328.12h-8.07v-2.3h19v2.3Z"/><path class="cls-1" d="M457.52,336.88c0,6.66-3.88,10.8-9.13,11.45a19.91,19.91,0,0,1-2.89.14h-6.73V325.82h6.9a19.91,19.91,0,0,1,2.89.13C453.81,326.61,457.52,330.12,457.52,336.88Zm-3.09,0c0-5-2.33-8-6.17-8.6a15.92,15.92,0,0,0-2.76-.16h-3.9v18.05h3.74a15,15,0,0,0,2.76-.17C451.94,345.38,454.43,342.23,454.43,336.88Z"/><path class="cls-1" d="M477.05,340.62H464.44c.26,4.6,2.43,6.14,5,6.14a4.39,4.39,0,0,0,4.5-3.91h2.95c-.69,4.2-4,6.08-7.58,6.08-4.53,0-7.91-3-7.91-9.1,0-5.64,3.51-9.22,8.27-9.22s7.45,3.58,7.45,8.67A12,12,0,0,1,477.05,340.62Zm-12.57-2.17h9.78c-.27-3.61-1.81-5.67-4.66-5.67s-4.8,2-5.12,5.67Z"/><path class="cls-1" d="M485.19,343.48v1.64c.07,1.11.59,1.47,2.13,1.31v2a14.82,14.82,0,0,1-2,.13c-1.64,0-2.85-.53-3-2.73V324.34h2.83Z"/><path class="cls-1" d="M507,338.73v9.79h-2.82v-9.59c0-.88,0-1.61-.07-2.49a3.52,3.52,0,0,0-3.43-3.59,3.64,3.64,0,0,0-.57,0c-2.73.07-5,2-5,8v7.65h-2.83V324.18h2.83v9.88l1.08-2a6.57,6.57,0,0,1,4.53-1.44c3.81,0,5.94,2,6.2,5.09C507,336.58,507,337.27,507,338.73Z"/><path class="cls-1" d="M516.57,327.16a1.81,1.81,0,1,1-1.82-1.8h0a1.78,1.78,0,0,1,1.81,1.75Zm-3.22,21.31v-17.4h2.82v17.4Z"/><path class="cls-2" d="M402.77,387.85H387.7V365.21h14.74v2.29H390.52v7.88h10.93v2.35H390.52v7.88h12.25Z"/><path class="cls-4" d="M421.15,378.07v9.78h-2.83v-9.58c0-.89,0-1.61-.06-2.49-.16-2-1.28-3.55-4-3.55s-5,2-5,8v7.64h-2.83V370.46h2.83v3l1.08-2a6.57,6.57,0,0,1,4.53-1.44c3.81,0,5.94,2,6.2,5.09C421.15,376,421.15,376.66,421.15,378.07Z"/><path class="cls-4" d="M429.62,382.73v1.34c.13,1.68.82,2,3,1.77v2.07a16,16,0,0,1-2.4.17c-2.16,0-3.28-.89-3.44-3.06V372.73h-2.33v-2.17h2.33v-4h2.83v4h3.25v2.17h-3.25Z"/><path class="cls-4" d="M444.85,370.29v2.14c-3-.2-5.19,1.54-5.19,5.51v9.91h-2.82V370.46h2.82v2.72l1.58-2.33a4.43,4.43,0,0,1,2.42-.78A2.71,2.71,0,0,1,444.85,370.29Z"/><path class="cls-4" d="M461.82,380H449.21c.26,4.6,2.43,6.14,5,6.14a4.39,4.39,0,0,0,4.5-3.91h3c-.69,4.2-4,6.07-7.58,6.07-4.53,0-7.91-2.95-7.91-9.09,0-5.64,3.51-9.22,8.27-9.22s7.45,3.58,7.45,8.66A12.21,12.21,0,0,1,461.82,380Zm-12.58-2.17H459c-.27-3.61-1.81-5.67-4.67-5.67s-4.76,2-5.09,5.67Z"/><path class="cls-4" d="M482.59,378.89c0,6.44-4,9.42-8.5,9.42a7.59,7.59,0,0,1-4.17-1.15l-1.14-1.7v8.83H466V370.46h2.83v2.79l1.31-1.87a7.66,7.66,0,0,1,4.59-1.38C479.77,370,482.59,373.81,482.59,378.89Zm-3.08.33c0-3.94-1.77-7.05-5.25-7.05-2.89,0-5.48,1.83-5.48,6.82v.95c0,4.5,2.82,6.21,5.31,6.21C477.14,386.15,479.51,383.78,479.51,379.22Z"/><path class="cls-4" d="M494.34,370.29v2.14c-2.95-.2-5.18,1.54-5.18,5.51v9.91h-2.82V370.46h2.82v2.72l1.57-2.33a4.49,4.49,0,0,1,2.43-.78A2.67,2.67,0,0,1,494.34,370.29Z"/><path class="cls-4" d="M511.31,380h-12.6c.26,4.6,2.43,6.14,5,6.14a4.38,4.38,0,0,0,4.49-3.91h3c-.69,4.2-4,6.07-7.58,6.07-4.53,0-7.91-2.95-7.91-9.09,0-5.64,3.51-9.22,8.27-9.22s7.45,3.58,7.45,8.66A10.26,10.26,0,0,1,511.31,380Zm-12.57-2.17h9.78c-.26-3.61-1.8-5.67-4.66-5.67S499.07,374.13,498.74,377.84Z"/><path class="cls-4" d="M530.15,378.07v9.78h-2.82v-9.58c0-.89,0-1.61-.06-2.49-.17-2-1.28-3.55-4-3.55s-5,2-5,8v7.64h-2.82V370.46h2.82v3l1.09-2a6.55,6.55,0,0,1,4.52-1.44c3.81,0,6,2,6.21,5.09C530.15,376,530.15,376.66,530.15,378.07Z"/><path class="cls-4" d="M549.45,380h-12.6c.26,4.6,2.43,6.14,5,6.14a4.39,4.39,0,0,0,4.5-3.91h2.95c-.69,4.2-4,6.07-7.58,6.07-4.53,0-7.91-2.95-7.91-9.09,0-5.64,3.51-9.22,8.27-9.22s7.45,3.58,7.45,8.66A12.22,12.22,0,0,1,549.45,380Zm-12.57-2.17h9.78c-.26-3.61-1.8-5.67-4.66-5.67S537.21,374.13,536.88,377.84Z"/><path class="cls-4" d="M568,387.85h-2.82v-3l-1.08,2a6.89,6.89,0,0,1-4.53,1.37c-3.61,0-5.71-2-6.11-4.43a18.86,18.86,0,0,1-.16-3V370.46h2.82v9.91c0,.8,0,1.6.13,2.4a3.71,3.71,0,0,0,4,3.31c2.72,0,4.89-2,4.89-8v-7.65H568Z"/><path class="cls-4" d="M581.36,370.29v2.14c-3-.2-5.19,1.54-5.19,5.51v9.91h-2.82V370.46h2.82v2.72l1.58-2.33a4.49,4.49,0,0,1,2.43-.78A2.67,2.67,0,0,1,581.36,370.29Z"/><path class="cls-4" d="M596,375.41h-3a3.56,3.56,0,0,0-3.68-3.24c-2,0-2.88,1.08-2.88,2.59,0,1.74,1.44,2.43,3.8,3.05,4,1.05,5.91,2.63,5.91,5.58,0,3.28-2.79,4.92-6.46,4.92s-6.31-1.64-6.83-5.58h3a3.76,3.76,0,0,0,4.07,3.42c1.87,0,3.38-.86,3.38-2.53s-1.18-2.56-4.1-3.35c-3.12-.85-5.61-2.13-5.61-5.18s2.43-5.09,6-5.09C593.47,370,595.6,372.23,596,375.41Z"/><path class="cls-4" d="M614.61,378.07v9.78h-2.82v-9.58c0-.89,0-1.61-.07-2.49a3.52,3.52,0,0,0-3.43-3.59,3.64,3.64,0,0,0-.57,0c-2.73.07-5,2-5,8v7.64H599.9v-24.3h2.83v9.88l1.08-2a6.57,6.57,0,0,1,4.53-1.44c3.81,0,5.94,2,6.2,5.09C614.61,376,614.61,376.66,614.61,378.07Z"/><path class="cls-4" d="M622.91,366.55a1.81,1.81,0,1,1-1.82-1.8h0a1.78,1.78,0,0,1,1.8,1.76Zm-3.21,21.3V370.46h2.82v17.39Z"/><path class="cls-4" d="M644.48,378.89c0,6.44-4,9.42-8.5,9.42a7.43,7.43,0,0,1-4.17-1.15l-1.15-1.7v8.83h-2.82V370.46h2.82v2.79l1.31-1.87a7.71,7.71,0,0,1,4.6-1.38C641.65,370,644.48,373.81,644.48,378.89Zm-3.09.33c0-3.94-1.77-7.05-5.25-7.05-2.89,0-5.48,1.83-5.48,6.82v.95c0,4.5,2.82,6.21,5.32,6.21,3,0,5.41-2.37,5.41-6.93Z"/><path class="cls-2" d="M675.23,376.27c0,6.66-3.87,10.8-9.12,11.45a21.43,21.43,0,0,1-2.89.13h-6.73V365.21h6.89a19.91,19.91,0,0,1,2.89.13C671.52,366,675.23,369.51,675.23,376.27Zm-3.08,0c0-5-2.33-8-6.17-8.6a15,15,0,0,0-2.76-.17h-3.91v18.06h3.75a16.86,16.86,0,0,0,2.75-.17c3.84-.66,6.34-3.77,6.34-9.12Z"/><path class="cls-4" d="M693.45,380h-12.6c.26,4.6,2.43,6.14,5,6.14a4.38,4.38,0,0,0,4.49-3.91h3c-.69,4.2-4,6.07-7.59,6.07-4.53,0-7.91-2.95-7.91-9.09,0-5.64,3.52-9.22,8.28-9.22s7.45,3.58,7.45,8.66A10.26,10.26,0,0,1,693.45,380Zm-12.57-2.17h9.78c-.26-3.61-1.8-5.67-4.66-5.67S681.21,374.13,680.88,377.84Z"/><path class="cls-4" d="M705.23,387.85h-3.44l-6.6-17.39h3.12l5.32,15.33,5.21-15.33h3Z"/><path class="cls-4" d="M728.74,380H716.13c.26,4.6,2.43,6.14,5,6.14a4.39,4.39,0,0,0,4.5-3.91h3c-.69,4.2-4,6.07-7.58,6.07-4.53,0-7.91-2.95-7.91-9.09,0-5.64,3.51-9.22,8.27-9.22s7.45,3.58,7.45,8.66Q728.83,379.34,728.74,380Zm-12.58-2.17h9.78c-.26-3.61-1.8-5.67-4.66-5.67S716.49,374.13,716.16,377.84Z"/><path class="cls-4" d="M735.56,382.87v1.64c.06,1.11.59,1.47,2.13,1.31v2a13.36,13.36,0,0,1-2,.14c-1.64,0-2.86-.53-3-2.73v-21.5h2.82Z"/><path class="cls-4" d="M757.13,379.16c0,4.89-2.73,9.15-8.63,9.15s-8.64-4.26-8.64-9.15,2.73-9.16,8.64-9.16S757.13,374.23,757.13,379.16Zm-3.09,0c0-4.11-2-7-5.54-7s-5.55,2.88-5.55,7,2,7,5.55,7,5.5-2.93,5.5-7Z"/><path class="cls-4" d="M777.51,378.89c0,6.44-4,9.42-8.5,9.42a7.59,7.59,0,0,1-4.17-1.15l-1.15-1.7v8.83h-2.82V370.46h2.82v2.79l1.32-1.87A7.66,7.66,0,0,1,769.6,370C774.69,370,777.51,373.81,777.51,378.89Zm-3.08.33c0-3.94-1.78-7.05-5.26-7.05-2.88,0-5.48,1.83-5.48,6.82v.95c0,4.5,2.83,6.21,5.32,6.21C772.06,386.15,774.43,383.78,774.43,379.22Z"/><path class="cls-4" d="M804.56,377.22v10.63h-2.83v-9.32a29.3,29.3,0,0,0-.13-3.38,3.13,3.13,0,0,0-3.31-2.94l-.17,0c-2.2,0-3.8,1.74-3.8,7v8.6h-2.83v-9.3a29.3,29.3,0,0,0-.13-3.38,3.13,3.13,0,0,0-3.31-2.94l-.17,0c-2.2,0-3.8,1.74-3.8,7v8.6h-2.83V370.46h2.83V373l1.11-2a5.65,5.65,0,0,1,3.68-1,4.9,4.9,0,0,1,5,3.25l1.54-2.23a5.65,5.65,0,0,1,3.68-1,4.93,4.93,0,0,1,5.28,4.23A18.5,18.5,0,0,1,804.56,377.22Z"/><path class="cls-4" d="M823.86,380H811.25c.27,4.6,2.43,6.14,5,6.14a4.38,4.38,0,0,0,4.5-3.91h3c-.69,4.2-4,6.07-7.58,6.07-4.53,0-7.91-2.95-7.91-9.09,0-5.64,3.51-9.22,8.27-9.22s7.45,3.58,7.45,8.66Q824,379.34,823.86,380Zm-12.57-2.17h9.78c-.27-3.61-1.81-5.67-4.66-5.67S811.61,374.13,811.29,377.84Z"/><path class="cls-4" d="M842.7,378.07v9.78h-2.82v-9.58c0-.89,0-1.61-.07-2.49-.16-2-1.28-3.55-4-3.55s-5,2-5,8v7.64H828V370.46h2.83v3l1.08-2a6.57,6.57,0,0,1,4.53-1.44c3.81,0,5.94,2,6.2,5.09C842.7,376,842.7,376.66,842.7,378.07Z"/><path class="cls-4" d="M851.17,382.73v1.34c.13,1.68.82,2,3,1.77v2.07a16,16,0,0,1-2.4.17c-2.16,0-3.28-.89-3.44-3.06V372.73H846v-2.17h2.33v-4h2.83v4h3.25v2.17h-3.25Z"/><path class="cls-2" d="M884.84,372.43v.33H882l-.06-.33c-.66-3.25-2.66-5.45-6.44-5.45-4.62,0-7.48,4-7.48,9.52s2.82,9.58,7.29,9.58c3.77,0,5.77-2.2,6.43-5.45l.07-.32h2.82v.32c-.43,4.11-3.48,7.68-9.46,7.68-6.59,0-10.27-5.05-10.27-11.68,0-6.89,4.27-11.88,10.7-11.88C881.36,364.73,884.38,368,884.84,372.43Z"/><path class="cls-4" d="M903.29,380h-12.6c.26,4.6,2.42,6.14,5,6.14a4.38,4.38,0,0,0,4.5-3.91h3c-.68,4.2-4,6.07-7.58,6.07-4.53,0-7.91-2.95-7.91-9.09,0-5.64,3.51-9.22,8.27-9.22s7.45,3.58,7.45,8.66A12.33,12.33,0,0,1,903.29,380Zm-12.57-2.17h9.78c-.26-3.61-1.81-5.67-4.66-5.67S891.05,374.13,890.72,377.84Z"/><path class="cls-4" d="M910.12,382.87v1.64c.07,1.11.59,1.47,2.13,1.31v2a13.36,13.36,0,0,1-2,.14c-1.64,0-2.85-.53-3-2.73v-21.5h2.83Z"/><path class="cls-4" d="M918.55,382.87v1.64c.06,1.11.59,1.47,2.13,1.31v2a13.36,13.36,0,0,1-2,.14c-1.64,0-2.86-.53-3-2.73v-21.5h2.82Z"/><path class="cls-2" d="M718,493.84H675.06V482.38l21-19.36q1.82-1.68,3.15-3a22.6,22.6,0,0,0,2.16-2.43,9.18,9.18,0,0,0,1.26-2.16,6.13,6.13,0,0,0,.41-2.2,4.66,4.66,0,0,0-1.52-3.61,5.88,5.88,0,0,0-4.17-1.4,6.83,6.83,0,0,0-4.78,1.7,6.31,6.31,0,0,0-1.9,5v1.74h-14.8v-1.74a21.46,21.46,0,0,1,2-9.53,19.85,19.85,0,0,1,5.09-6.68,21,21,0,0,1,7-3.91,24.11,24.11,0,0,1,7.67-1.29,22.81,22.81,0,0,1,7.93,1.36,20.4,20.4,0,0,1,6.61,3.91,18.91,18.91,0,0,1,6.26,14.47,18.55,18.55,0,0,1-1.22,6.87,26.1,26.1,0,0,1-3,5.61,33.91,33.91,0,0,1-4,4.63q-2.16,2.1-4,3.84l-5,4.55H718Z"/><path class="cls-2" d="M746.72,464.23a42.14,42.14,0,0,1,1.56-11.5,30.14,30.14,0,0,1,4.7-9.83,22.95,22.95,0,0,1,29.5-6.87,24.23,24.23,0,0,1,7.89,6.87,30.13,30.13,0,0,1,4.78,9.83,42,42,0,0,1,0,23,30.13,30.13,0,0,1-4.78,9.83,24.55,24.55,0,0,1-7.89,6.83,24.06,24.06,0,0,1-21.68,0,24.32,24.32,0,0,1-7.82-6.83,29.74,29.74,0,0,1-4.7-9.83A42.63,42.63,0,0,1,746.72,464.23Zm15.11,0c0,5.07.92,9,2.77,11.85s4.19,4.25,7,4.25a7.6,7.6,0,0,0,4-1.1,9.9,9.9,0,0,0,3.15-3.19,17.86,17.86,0,0,0,2.09-5.05,27.55,27.55,0,0,0,.76-6.76q0-7.59-2.85-11.8t-7.1-4.21c-2.83,0-5.18,1.4-7,4.21s-2.82,6.74-2.82,11.8Z"/><path class="cls-2" d="M867.58,493.84H824.69V482.38L845.64,463q1.82-1.68,3.15-3a23.73,23.73,0,0,0,2.16-2.43,8.81,8.81,0,0,0,1.25-2.16,5.93,5.93,0,0,0,.42-2.2,4.66,4.66,0,0,0-1.52-3.61,5.88,5.88,0,0,0-4.17-1.4,6.83,6.83,0,0,0-4.78,1.7,6.31,6.31,0,0,0-1.9,5v1.74H825.44v-1.74a21.46,21.46,0,0,1,2-9.53,19.82,19.82,0,0,1,5.06-6.66,21,21,0,0,1,7-3.91,24.11,24.11,0,0,1,7.67-1.29,22.81,22.81,0,0,1,7.93,1.36,20.25,20.25,0,0,1,6.6,3.91,18.93,18.93,0,0,1,4.56,6.19,19.33,19.33,0,0,1,1.74,8.24,18.55,18.55,0,0,1-1.22,6.87,26.1,26.1,0,0,1-3,5.61,33.91,33.91,0,0,1-4,4.63q-2.16,2.1-4,3.84l-5,4.55h16.86Z"/><path class="cls-2" d="M896.35,439.11l13-4.48H919.5v59.21H904.4V452.09l-8,2.81Z"/></svg>